<svg width="500" height="500" viewBox="0 0 500 500" fill="none" xmlns="http://www.w3.org/2000/svg">
<rect width="500" height="500" fill="white"/>
<circle cx="250" cy="250" r="250" fill="#22E6C5"/>
<path d="M177.16 82.169C169.118 83.0625 146.333 89.3172 141.419 104.656C136.505 119.994 120.421 136.823 134.271 98.8479C148.121 60.8733 201.285 70.9208 209.327 76.9566C217.368 82.9925 229.431 87.8276 229.431 122.973C229.431 158.118 196.37 179.711 190.116 199.816C184.025 219.392 194.879 230.92 195.453 231.512C195.472 231.527 195.477 231.536 195.477 231.536C195.477 231.536 195.469 231.528 195.453 231.512C195.281 231.375 193.916 230.731 183.861 231.536C183.861 231.536 171.799 231.536 177.16 199.816C182.521 168.096 214.688 165.862 217.368 122.973C220.049 80.0839 185.201 81.2755 177.16 82.169Z" fill="black"/>
<path d="M141.419 104.656C146.333 89.3172 169.118 83.0625 177.16 82.169C185.201 81.2755 220.049 80.0839 217.368 122.973C214.688 165.862 182.521 168.096 177.16 199.816C171.799 231.536 183.861 231.536 183.861 231.536C195.03 230.642 195.477 231.536 195.477 231.536C195.477 231.536 183.861 219.92 190.116 199.816C196.37 179.711 229.431 158.118 229.431 122.973C229.431 87.8276 217.368 82.9925 209.327 76.9566C201.285 70.9208 148.121 60.8733 134.271 98.8479C120.421 136.823 136.505 119.994 141.419 104.656Z" stroke="black" stroke-width="2"/>
<circle cx="130.25" cy="111.804" r="13.4028" fill="black"/>
<path d="M321.016 82.0876C329.058 82.9811 351.843 89.2358 356.757 104.574C361.672 119.913 377.755 136.741 363.905 98.7665C350.056 60.7919 296.891 70.8394 288.85 76.8752C280.808 82.911 268.746 87.7462 268.746 122.891C268.746 158.037 301.806 179.63 308.06 199.734C314.151 219.31 303.297 230.838 302.723 231.43C302.704 231.445 302.699 231.454 302.699 231.454C302.699 231.454 302.707 231.446 302.723 231.43C302.895 231.294 304.26 230.65 314.315 231.454C314.315 231.454 326.378 231.454 321.016 199.734C315.655 168.014 283.489 165.78 280.808 122.891C278.128 80.0025 312.975 81.1941 321.016 82.0876Z" fill="black"/>
<path d="M356.757 104.574C351.843 89.2358 329.058 82.9811 321.016 82.0876C312.975 81.1941 278.128 80.0025 280.808 122.891C283.489 165.78 315.655 168.014 321.016 199.734C326.378 231.454 314.315 231.454 314.315 231.454C303.146 230.561 302.699 231.454 302.699 231.454C302.699 231.454 314.315 219.838 308.06 199.734C301.806 179.63 268.746 158.037 268.746 122.891C268.746 87.7462 280.808 82.911 288.85 76.8752C296.891 70.8394 350.056 60.7919 363.905 98.7665C377.755 136.741 361.672 119.913 356.757 104.574Z" stroke="black" stroke-width="2"/>
<circle r="13.4028" transform="matrix(-1 0 0 1 367.926 111.722)" fill="black"/>
<path d="M130.389 416.941C122.347 416.047 99.5622 409.793 94.6478 394.454C89.7334 379.115 73.65 362.287 87.4996 400.262C101.349 438.237 154.514 428.189 162.555 422.153C170.597 416.117 182.659 411.282 182.659 376.137C182.659 340.992 149.599 319.398 143.345 299.294C137.254 279.718 148.108 268.19 148.682 267.598C148.701 267.583 148.706 267.574 148.706 267.574C148.706 267.574 148.698 267.582 148.682 267.598C148.51 267.735 147.145 268.379 137.09 267.574C137.09 267.574 125.027 267.574 130.389 299.294C135.75 331.014 167.916 333.248 170.597 376.137C173.277 419.026 138.43 417.834 130.389 416.941Z" fill="black"/>
<path d="M94.6478 394.454C99.5622 409.793 122.347 416.047 130.389 416.941C138.43 417.834 173.277 419.026 170.597 376.137C167.916 333.248 135.75 331.014 130.389 299.294C125.027 267.574 137.09 267.574 137.09 267.574C148.259 268.468 148.706 267.574 148.706 267.574C148.706 267.574 137.09 279.19 143.345 299.294C149.599 319.398 182.659 340.992 182.659 376.137C182.659 411.282 170.597 416.117 162.555 422.153C154.514 428.189 101.349 438.237 87.4996 400.262C73.65 362.287 89.7334 379.115 94.6478 394.454Z" stroke="black" stroke-width="2"/>
<path d="M369.266 417.834C377.308 416.941 400.093 410.686 405.007 395.348C409.922 380.009 426.005 363.181 412.155 401.155C398.306 439.13 345.141 429.083 337.1 423.047C329.058 417.011 316.996 412.176 316.996 377.03C316.996 341.885 350.056 320.292 356.31 300.188C362.401 280.612 351.547 269.084 350.973 268.492C350.954 268.477 350.949 268.468 350.949 268.468C350.949 268.468 350.957 268.476 350.973 268.492C351.145 268.628 352.51 269.272 362.565 268.468C362.565 268.468 374.628 268.468 369.266 300.188C363.905 331.908 331.739 334.142 329.058 377.03C326.378 419.919 361.225 418.728 369.266 417.834Z" fill="black"/>
<path d="M405.007 395.348C400.093 410.686 377.308 416.941 369.266 417.834C361.225 418.728 326.378 419.919 329.058 377.03C331.739 334.142 363.905 331.908 369.266 300.188C374.628 268.468 362.565 268.468 362.565 268.468C351.396 269.361 350.949 268.468 350.949 268.468C350.949 268.468 362.565 280.083 356.31 300.188C350.056 320.292 316.996 341.885 316.996 377.03C316.996 412.176 329.058 417.011 337.1 423.047C345.141 429.083 398.306 439.13 412.155 401.155C426.005 363.181 409.922 380.009 405.007 395.348Z" stroke="black" stroke-width="2"/>
<path d="M253.109 417.834C261.151 416.941 283.935 410.686 288.85 395.348C293.764 380.009 309.848 363.181 295.998 401.155C282.148 439.13 228.984 429.083 220.942 423.047C212.901 417.011 200.838 412.176 200.838 377.03C200.838 341.885 233.898 320.292 240.153 300.188C246.243 280.612 235.39 269.084 234.815 268.492C234.796 268.477 234.792 268.468 234.792 268.468C234.792 268.468 234.8 268.476 234.815 268.492C234.988 268.628 236.353 269.272 246.408 268.468C246.408 268.468 258.47 268.468 253.109 300.188C247.748 331.908 215.581 334.142 212.901 377.03C210.22 419.919 245.067 418.728 253.109 417.834Z" fill="black"/>
<path d="M288.85 395.348C283.935 410.686 261.151 416.941 253.109 417.834C245.067 418.728 210.22 419.919 212.901 377.03C215.581 334.142 247.748 331.908 253.109 300.188C258.47 268.468 246.408 268.468 246.408 268.468C235.239 269.361 234.792 268.468 234.792 268.468C234.792 268.468 246.408 280.083 240.153 300.188C233.898 320.292 200.838 341.885 200.838 377.03C200.838 412.176 212.901 417.011 220.942 423.047C228.984 429.083 282.148 439.13 295.998 401.155C309.848 363.181 293.764 380.009 288.85 395.348Z" stroke="black" stroke-width="2"/>
<ellipse cx="250.428" cy="255.512" rx="123.752" ry="52.2709" fill="black"/>
</svg>
